<svg width="20" height="20" viewBox="0 0 20 20" fill="none" xmlns="http://www.w3.org/2000/svg">
<path fill-rule="evenodd" clip-rule="evenodd" d="M10.0004 -0.0010376C7.28436 -0.0010376 6.9435 0.0108385 5.87677 0.0593824C4.81212 0.108136 4.08541 0.276689 3.44953 0.523995C2.79178 0.779428 2.23383 1.12112 1.67797 1.67719C1.12168 2.23306 0.779992 2.79101 0.523726 3.44855C0.275794 4.08463 0.107033 4.81155 0.0591135 5.87579C0.0114021 6.94252 -0.00109863 7.28359 -0.00109863 9.99959C-0.00109863 12.7156 0.0109854 13.0554 0.0593214 14.1221C0.108283 15.1868 0.276835 15.9135 0.523934 16.5494C0.779575 17.2071 1.12126 17.7651 1.67734 18.3209C2.233 18.8772 2.79095 19.2197 3.44828 19.4752C4.08457 19.7225 4.81149 19.891 5.87594 19.9398C6.94267 19.9883 7.28332 20.0002 9.99911 20.0002C12.7153 20.0002 13.0551 19.9883 14.1219 19.9398C15.1865 19.891 15.9141 19.7225 16.5504 19.4752C17.2079 19.2197 17.765 18.8772 18.3207 18.3209C18.877 17.7651 19.2186 17.2071 19.4749 16.5496C19.7208 15.9135 19.8895 15.1866 19.9395 14.1223C19.9874 13.0556 19.9999 12.7156 19.9999 9.99959C19.9999 7.28359 19.9874 6.94273 19.9395 5.876C19.8895 4.81135 19.7208 4.08463 19.4749 3.44876C19.2186 2.79101 18.877 2.23306 18.3207 1.67719C17.7644 1.12091 17.2081 0.77922 16.5497 0.523995C15.9122 0.276689 15.1851 0.108136 14.1204 0.0593824C13.0537 0.0108385 12.7141 -0.0010376 9.99724 -0.0010376H10.0004ZM9.10322 1.80116C9.27737 1.80089 9.46472 1.80097 9.66688 1.80106H9.66705L10.0004 1.80116C12.6705 1.80116 12.987 1.81074 14.0414 1.85866C15.0165 1.90325 15.5457 2.06618 15.8982 2.20306C16.3649 2.38432 16.6977 2.601 17.0475 2.95102C17.3975 3.30104 17.6142 3.6344 17.7958 4.10109C17.9327 4.4532 18.0959 4.9824 18.1402 5.95746C18.1882 7.01169 18.1986 7.32838 18.1986 9.9973C18.1986 12.6662 18.1882 12.9829 18.1402 14.0371C18.0957 15.0122 17.9327 15.5414 17.7958 15.8935C17.6146 16.3602 17.3975 16.6925 17.0475 17.0423C16.6974 17.3923 16.3651 17.609 15.8982 17.7903C15.5461 17.9278 15.0165 18.0903 14.0414 18.1349C12.9872 18.1828 12.6705 18.1932 10.0004 18.1932C7.32999 18.1932 7.01351 18.1828 5.95927 18.1349C4.98421 18.0899 4.45501 17.927 4.10228 17.7901C3.63559 17.6088 3.30223 17.3921 2.95221 17.0421C2.60219 16.6921 2.38551 16.3596 2.20383 15.8927C2.06695 15.5406 1.90381 15.0114 1.85943 14.0363C1.81151 12.9821 1.80193 12.6654 1.80193 9.9948C1.80193 7.32421 1.81151 7.00919 1.85943 5.95496C1.90402 4.9799 2.06695 4.4507 2.20383 4.09818C2.38509 3.63148 2.60219 3.29813 2.95221 2.94811C3.30223 2.59808 3.63559 2.3814 4.10228 2.19973C4.45481 2.06222 4.98421 1.89971 5.95927 1.85491C6.88183 1.81324 7.23935 1.80074 9.10322 1.79866V1.80116ZM15.3386 3.46168C14.6761 3.46168 14.1385 3.99859 14.1385 4.66134C14.1385 5.32388 14.6761 5.86141 15.3386 5.86141C16.0012 5.86141 16.5387 5.32388 16.5387 4.66134C16.5387 3.9988 16.0012 3.46126 15.3386 3.46126V3.46168ZM4.86462 9.99959C4.86462 7.16344 7.16403 4.86396 10.0002 4.86385C12.8364 4.86385 15.1353 7.16337 15.1353 9.99959C15.1353 12.8358 12.8366 15.1343 10.0004 15.1343C7.16414 15.1343 4.86462 12.8358 4.86462 9.99959ZM13.3339 9.99959C13.3339 8.15843 11.8413 6.66605 10.0004 6.66605C8.1592 6.66605 6.66682 8.15843 6.66682 9.99959C6.66682 11.8405 8.1592 13.3331 10.0004 13.3331C11.8413 13.3331 13.3339 11.8405 13.3339 9.99959Z" fill="#808080"/>
</svg>
